<?xml version="1.0" encoding="iso-8859-1"?>
<!-- Uploaded to: SVG Repo, www.svgrepo.com, Generator: SVG Repo Mixer Tools -->
<!DOCTYPE svg PUBLIC "-//W3C//DTD SVG 1.1//EN" "http://www.w3.org/Graphics/SVG/1.1/DTD/svg11.dtd">
<svg fill="#000000" height="800px" width="800px" version="1.1" id="Capa_1" xmlns="http://www.w3.org/2000/svg" xmlns:xlink="http://www.w3.org/1999/xlink" 
	 viewBox="0 0 226.014 226.014" xml:space="preserve">
<g>
	<path d="M113.009,226.013c62.31,0,113.005-50.693,113.005-113.006S175.318,0.001,113.009,0.001C50.695,0.001,0,50.694,0,113.007
		S50.695,226.013,113.009,226.013z M113.009,15.001c54.041,0,98.005,43.965,98.005,98.006s-43.964,98.006-98.005,98.006
		C58.965,211.013,15,167.048,15,113.007S58.965,15.001,113.009,15.001z"/>
	<path d="M113.009,179.855c36.858,0,66.847-29.988,66.847-66.848c0-36.861-29.988-66.848-66.847-66.848
		c-36.862,0-66.85,29.986-66.85,66.848C46.159,149.866,76.146,179.855,113.009,179.855z M113.009,61.159
		c28.587,0,51.847,23.258,51.847,51.848c0,28.588-23.26,51.848-51.847,51.848c-28.591,0-51.85-23.26-51.85-51.848
		C61.159,84.417,84.418,61.159,113.009,61.159z"/>
</g>
</svg>